<svg width="872" height="107" viewBox="0 0 872 107" fill="none" xmlns="http://www.w3.org/2000/svg">
<path d="M0.105824 82V0.545452H48.9467V9.29545H9.96946V36.8182H45.2876V45.5682H9.96946V82H0.105824ZM84.9013 83.2727C79.3861 83.2727 74.5471 81.9602 70.3842 79.3352C66.2479 76.7102 63.013 73.0379 60.6797 68.3182C58.3729 63.5985 57.2195 58.0833 57.2195 51.7727C57.2195 45.4091 58.3729 39.8542 60.6797 35.108C63.013 30.3617 66.2479 26.6761 70.3842 24.0511C74.5471 21.4261 79.3861 20.1136 84.9013 20.1136C90.4164 20.1136 95.2422 21.4261 99.3786 24.0511C103.541 26.6761 106.776 30.3617 109.083 35.108C111.416 39.8542 112.583 45.4091 112.583 51.7727C112.583 58.0833 111.416 63.5985 109.083 68.3182C106.776 73.0379 103.541 76.7102 99.3786 79.3352C95.2422 81.9602 90.4164 83.2727 84.9013 83.2727ZM84.9013 74.8409C89.0907 74.8409 92.5376 73.767 95.2422 71.6193C97.9467 69.4716 99.9486 66.6477 101.248 63.1477C102.547 59.6477 103.197 55.8561 103.197 51.7727C103.197 47.6894 102.547 43.8845 101.248 40.358C99.9486 36.8314 97.9467 33.9811 95.2422 31.8068C92.5376 29.6326 89.0907 28.5455 84.9013 28.5455C80.7119 28.5455 77.2649 29.6326 74.5604 31.8068C71.8558 33.9811 69.8539 36.8314 68.5547 40.358C67.2554 43.8845 66.6058 47.6894 66.6058 51.7727C66.6058 55.8561 67.2554 59.6477 68.5547 63.1477C69.8539 66.6477 71.8558 69.4716 74.5604 71.6193C77.2649 73.767 80.7119 74.8409 84.9013 74.8409ZM126.911 82V20.9091H135.979V30.1364H136.616C137.729 27.1136 139.745 24.661 142.661 22.7784C145.578 20.8958 148.866 19.9545 152.525 19.9545C153.214 19.9545 154.076 19.9678 155.11 19.9943C156.144 20.0208 156.926 20.0606 157.457 20.1136V29.6591C157.138 29.5795 156.409 29.4602 155.269 29.3011C154.156 29.1155 152.976 29.0227 151.729 29.0227C148.76 29.0227 146.108 29.6458 143.775 30.892C141.468 32.1117 139.638 33.8087 138.286 35.983C136.96 38.1307 136.298 40.5833 136.298 43.3409V82H126.911ZM191.383 106.182C186.849 106.182 182.951 105.598 179.69 104.432C176.428 103.292 173.71 101.78 171.536 99.8977C169.388 98.0417 167.678 96.053 166.406 93.9318L173.883 88.6818C174.731 89.7955 175.805 91.0682 177.104 92.5C178.404 93.9583 180.18 95.2178 182.434 96.2784C184.714 97.3655 187.697 97.9091 191.383 97.9091C196.315 97.9091 200.385 96.7159 203.593 94.3295C206.801 91.9432 208.406 88.2045 208.406 83.1136V70.7045H207.61C206.921 71.8182 205.94 73.197 204.667 74.8409C203.421 76.4583 201.618 77.9034 199.258 79.1761C196.924 80.4223 193.769 81.0455 189.792 81.0455C184.86 81.0455 180.432 79.8788 176.508 77.5455C172.61 75.2121 169.521 71.8182 167.241 67.3636C164.987 62.9091 163.86 57.5 163.86 51.1364C163.86 44.8788 164.96 39.4299 167.161 34.7898C169.362 30.1231 172.424 26.517 176.349 23.9716C180.273 21.3996 184.807 20.1136 189.951 20.1136C193.928 20.1136 197.084 20.7765 199.417 22.1023C201.777 23.4015 203.58 24.8864 204.826 26.5568C206.099 28.2008 207.08 29.553 207.769 30.6136H208.724V20.9091H217.792V83.75C217.792 89 216.599 93.2689 214.212 96.5568C211.853 99.8712 208.671 102.297 204.667 103.835C200.69 105.4 196.262 106.182 191.383 106.182ZM191.065 72.6136C194.83 72.6136 198.012 71.7519 200.61 70.0284C203.209 68.3049 205.184 65.8258 206.536 62.5909C207.888 59.3561 208.565 55.4848 208.565 50.9773C208.565 46.5758 207.902 42.6913 206.576 39.3239C205.25 35.9564 203.288 33.3182 200.69 31.4091C198.091 29.5 194.883 28.5455 191.065 28.5455C187.087 28.5455 183.773 29.553 181.121 31.5682C178.496 33.5833 176.521 36.2879 175.195 39.6818C173.896 43.0758 173.246 46.8409 173.246 50.9773C173.246 55.2197 173.909 58.9716 175.235 62.233C176.587 65.4678 178.576 68.0133 181.201 69.8693C183.853 71.6989 187.14 72.6136 191.065 72.6136ZM259.792 83.2727C254.277 83.2727 249.438 81.9602 245.275 79.3352C241.138 76.7102 237.904 73.0379 235.57 68.3182C233.263 63.5985 232.11 58.0833 232.11 51.7727C232.11 45.4091 233.263 39.8542 235.57 35.108C237.904 30.3617 241.138 26.6761 245.275 24.0511C249.438 21.4261 254.277 20.1136 259.792 20.1136C265.307 20.1136 270.133 21.4261 274.269 24.0511C278.432 26.6761 281.667 30.3617 283.974 35.108C286.307 39.8542 287.474 45.4091 287.474 51.7727C287.474 58.0833 286.307 63.5985 283.974 68.3182C281.667 73.0379 278.432 76.7102 274.269 79.3352C270.133 81.9602 265.307 83.2727 259.792 83.2727ZM259.792 74.8409C263.981 74.8409 267.428 73.767 270.133 71.6193C272.837 69.4716 274.839 66.6477 276.138 63.1477C277.438 59.6477 278.087 55.8561 278.087 51.7727C278.087 47.6894 277.438 43.8845 276.138 40.358C274.839 36.8314 272.837 33.9811 270.133 31.8068C267.428 29.6326 263.981 28.5455 259.792 28.5455C255.603 28.5455 252.156 29.6326 249.451 31.8068C246.746 33.9811 244.745 36.8314 243.445 40.358C242.146 43.8845 241.496 47.6894 241.496 51.7727C241.496 55.8561 242.146 59.6477 243.445 63.1477C244.745 66.6477 246.746 69.4716 249.451 71.6193C252.156 73.767 255.603 74.8409 259.792 74.8409ZM328.37 20.9091V28.8636H296.711V20.9091H328.37ZM305.938 6.27273H315.325V64.5C315.325 67.1515 315.709 69.1402 316.478 70.4659C317.273 71.7652 318.281 72.6402 319.501 73.0909C320.747 73.5152 322.059 73.7273 323.438 73.7273C324.472 73.7273 325.321 73.6742 325.984 73.5682C326.647 73.4356 327.177 73.3295 327.575 73.25L329.484 81.6818C328.847 81.9205 327.959 82.1591 326.819 82.3977C325.679 82.6629 324.234 82.7955 322.484 82.7955C319.832 82.7955 317.234 82.2254 314.688 81.0852C312.169 79.9451 310.075 78.2083 308.404 75.875C306.76 73.5417 305.938 70.5985 305.938 67.0455V6.27273ZM375.262 82V0.545452H402.785C409.175 0.545452 414.398 1.69886 418.455 4.00568C422.539 6.28598 425.561 9.375 427.523 13.2727C429.486 17.1705 430.467 21.5189 430.467 26.3182C430.467 31.1174 429.486 35.4792 427.523 39.4034C425.588 43.3276 422.592 46.4564 418.535 48.7898C414.478 51.0966 409.281 52.25 402.944 52.25H383.217V43.5H402.626C407.001 43.5 410.514 42.7443 413.165 41.233C415.817 39.7216 417.739 37.6799 418.933 35.108C420.152 32.5095 420.762 29.5795 420.762 26.3182C420.762 23.0568 420.152 20.1402 418.933 17.5682C417.739 14.9962 415.804 12.9811 413.126 11.5227C410.448 10.0379 406.895 9.29545 402.467 9.29545H385.126V82H375.262ZM463.06 83.4318C459.189 83.4318 455.676 82.7027 452.521 81.2443C449.365 79.7595 446.86 77.625 445.004 74.8409C443.147 72.0303 442.219 68.6364 442.219 64.6591C442.219 61.1591 442.909 58.322 444.288 56.1477C445.666 53.947 447.509 52.2235 449.816 50.9773C452.123 49.7311 454.668 48.803 457.452 48.1932C460.263 47.5568 463.087 47.053 465.924 46.6818C469.636 46.2045 472.646 45.8466 474.952 45.608C477.286 45.3428 478.983 44.9053 480.043 44.2955C481.13 43.6856 481.674 42.625 481.674 41.1136V40.7955C481.674 36.8712 480.6 33.822 478.452 31.6477C476.331 29.4735 473.11 28.3864 468.788 28.3864C464.307 28.3864 460.793 29.3674 458.248 31.3295C455.702 33.2917 453.913 35.3864 452.879 37.6136L443.969 34.4318C445.56 30.7197 447.682 27.8295 450.333 25.7614C453.011 23.6667 455.928 22.2083 459.083 21.3864C462.265 20.5379 465.394 20.1136 468.469 20.1136C470.432 20.1136 472.685 20.3523 475.231 20.8295C477.803 21.2803 480.282 22.2216 482.668 23.6534C485.081 25.0852 487.083 27.2462 488.674 30.1364C490.265 33.0265 491.06 36.8977 491.06 41.75V82H481.674V73.7273H481.197C480.56 75.053 479.5 76.4716 478.015 77.983C476.53 79.4943 474.555 80.7803 472.089 81.8409C469.623 82.9015 466.613 83.4318 463.06 83.4318ZM464.492 75C468.204 75 471.333 74.2708 473.879 72.8125C476.451 71.3542 478.386 69.4716 479.685 67.1648C481.011 64.858 481.674 62.4318 481.674 59.8864V51.2955C481.276 51.7727 480.401 52.2102 479.049 52.608C477.723 52.9792 476.185 53.3106 474.435 53.6023C472.712 53.8674 471.028 54.1061 469.384 54.3182C467.767 54.5038 466.454 54.6629 465.447 54.7955C463.007 55.1136 460.727 55.6307 458.606 56.3466C456.511 57.036 454.814 58.0833 453.515 59.4886C452.242 60.8674 451.606 62.75 451.606 65.1364C451.606 68.3977 452.812 70.8636 455.225 72.5341C457.665 74.178 460.754 75 464.492 75ZM551.465 34.5909L543.033 36.9773C542.503 35.572 541.721 34.2064 540.687 32.8807C539.679 31.5284 538.3 30.4148 536.55 29.5398C534.8 28.6648 532.56 28.2273 529.829 28.2273C526.09 28.2273 522.975 29.089 520.482 30.8125C518.016 32.5095 516.783 34.6705 516.783 37.2955C516.783 39.6288 517.632 41.4716 519.329 42.8239C521.026 44.1761 523.677 45.303 527.283 46.2045L536.352 48.4318C541.814 49.7576 545.884 51.786 548.562 54.517C551.24 57.2216 552.579 60.7083 552.579 64.9773C552.579 68.4773 551.571 71.6061 549.556 74.3636C547.567 77.1212 544.783 79.2955 541.204 80.8864C537.624 82.4773 533.461 83.2727 528.715 83.2727C522.484 83.2727 517.327 81.9205 513.244 79.2159C509.16 76.5114 506.575 72.5606 505.488 67.3636L514.397 65.1364C515.246 68.4242 516.85 70.8902 519.21 72.5341C521.596 74.178 524.711 75 528.556 75C532.931 75 536.405 74.072 538.977 72.2159C541.575 70.3333 542.874 68.0795 542.874 65.4545C542.874 63.3333 542.132 61.5568 540.647 60.125C539.162 58.6667 536.882 57.5795 533.806 56.8636L523.624 54.4773C518.03 53.1515 513.92 51.0966 511.295 48.3125C508.696 45.5019 507.397 41.9886 507.397 37.7727C507.397 34.3258 508.365 31.2765 510.3 28.625C512.263 25.9735 514.927 23.892 518.295 22.3807C521.689 20.8693 525.533 20.1136 529.829 20.1136C535.874 20.1136 540.621 21.4394 544.067 24.0909C547.541 26.7424 550.007 30.2424 551.465 34.5909ZM609.981 34.5909L601.549 36.9773C601.019 35.572 600.237 34.2064 599.202 32.8807C598.195 31.5284 596.816 30.4148 595.066 29.5398C593.316 28.6648 591.076 28.2273 588.344 28.2273C584.606 28.2273 581.49 29.089 578.998 30.8125C576.532 32.5095 575.299 34.6705 575.299 37.2955C575.299 39.6288 576.147 41.4716 577.844 42.8239C579.541 44.1761 582.193 45.303 585.799 46.2045L594.867 48.4318C600.329 49.7576 604.399 51.786 607.077 54.517C609.755 57.2216 611.094 60.7083 611.094 64.9773C611.094 68.4773 610.087 71.6061 608.072 74.3636C606.083 77.1212 603.299 79.2955 599.719 80.8864C596.14 82.4773 591.977 83.2727 587.231 83.2727C581 83.2727 575.843 81.9205 571.759 79.2159C567.676 76.5114 565.091 72.5606 564.004 67.3636L572.913 65.1364C573.761 68.4242 575.365 70.8902 577.725 72.5341C580.112 74.178 583.227 75 587.072 75C591.447 75 594.92 74.072 597.492 72.2159C600.091 70.3333 601.39 68.0795 601.39 65.4545C601.39 63.3333 600.647 61.5568 599.163 60.125C597.678 58.6667 595.397 57.5795 592.322 56.8636L582.14 54.4773C576.545 53.1515 572.435 51.0966 569.81 48.3125C567.212 45.5019 565.913 41.9886 565.913 37.7727C565.913 34.3258 566.88 31.2765 568.816 28.625C570.778 25.9735 573.443 23.892 576.81 22.3807C580.204 20.8693 584.049 20.1136 588.344 20.1136C594.39 20.1136 599.136 21.4394 602.583 24.0909C606.057 26.7424 608.522 30.2424 609.981 34.5909ZM639.065 82L620.451 20.9091H630.315L643.519 67.6818H644.156L657.201 20.9091H667.224L680.11 67.5227H680.746L693.951 20.9091H703.815L685.201 82H675.974L662.61 35.0682H661.656L648.292 82H639.065ZM738.964 83.2727C733.449 83.2727 728.61 81.9602 724.447 79.3352C720.31 76.7102 717.076 73.0379 714.742 68.3182C712.435 63.5985 711.282 58.0833 711.282 51.7727C711.282 45.4091 712.435 39.8542 714.742 35.108C717.076 30.3617 720.31 26.6761 724.447 24.0511C728.61 21.4261 733.449 20.1136 738.964 20.1136C744.479 20.1136 749.305 21.4261 753.441 24.0511C757.604 26.6761 760.839 30.3617 763.146 35.108C765.479 39.8542 766.646 45.4091 766.646 51.7727C766.646 58.0833 765.479 63.5985 763.146 68.3182C760.839 73.0379 757.604 76.7102 753.441 79.3352C749.305 81.9602 744.479 83.2727 738.964 83.2727ZM738.964 74.8409C743.153 74.8409 746.6 73.767 749.305 71.6193C752.009 69.4716 754.011 66.6477 755.31 63.1477C756.61 59.6477 757.259 55.8561 757.259 51.7727C757.259 47.6894 756.61 43.8845 755.31 40.358C754.011 36.8314 752.009 33.9811 749.305 31.8068C746.6 29.6326 743.153 28.5455 738.964 28.5455C734.774 28.5455 731.327 29.6326 728.623 31.8068C725.918 33.9811 723.916 36.8314 722.617 40.358C721.318 43.8845 720.668 47.6894 720.668 51.7727C720.668 55.8561 721.318 59.6477 722.617 63.1477C723.916 66.6477 725.918 69.4716 728.623 71.6193C731.327 73.767 734.774 74.8409 738.964 74.8409ZM780.974 82V20.9091H790.042V30.1364H790.678C791.792 27.1136 793.807 24.661 796.724 22.7784C799.64 20.8958 802.928 19.9545 806.587 19.9545C807.277 19.9545 808.138 19.9678 809.173 19.9943C810.207 20.0208 810.989 20.0606 811.519 20.1136V29.6591C811.201 29.5795 810.472 29.4602 809.332 29.3011C808.218 29.1155 807.038 29.0227 805.792 29.0227C802.822 29.0227 800.171 29.6458 797.837 30.892C795.531 32.1117 793.701 33.8087 792.349 35.983C791.023 38.1307 790.36 40.5833 790.36 43.3409V82H780.974ZM843.854 83.2727C838.763 83.2727 834.269 81.9867 830.371 79.4148C826.474 76.8163 823.424 73.1572 821.224 68.4375C819.023 63.6913 817.923 58.0833 817.923 51.6136C817.923 45.197 819.023 39.6288 821.224 34.9091C823.424 30.1894 826.487 26.5436 830.411 23.9716C834.335 21.3996 838.87 20.1136 844.013 20.1136C847.991 20.1136 851.133 20.7765 853.44 22.1023C855.773 23.4015 857.549 24.8864 858.769 26.5568C860.015 28.2008 860.983 29.553 861.673 30.6136H862.468V0.545452H871.854V82H862.786V72.6136H861.673C860.983 73.7273 860.002 75.1326 858.729 76.8295C857.457 78.5 855.64 79.9981 853.281 81.3239C850.921 82.6231 847.779 83.2727 843.854 83.2727ZM845.127 74.8409C848.892 74.8409 852.074 73.8598 854.673 71.8977C857.271 69.9091 859.246 67.1648 860.599 63.6648C861.951 60.1383 862.627 56.0682 862.627 51.4545C862.627 46.8939 861.964 42.9034 860.638 39.483C859.313 36.036 857.351 33.358 854.752 31.4489C852.154 29.5133 848.945 28.5455 845.127 28.5455C841.15 28.5455 837.835 29.5663 835.184 31.608C832.559 33.6231 830.584 36.3674 829.258 39.8409C827.959 43.2879 827.309 47.1591 827.309 51.4545C827.309 55.803 827.972 59.7538 829.298 63.3068C830.65 66.8333 832.638 69.6439 835.263 71.7386C837.915 73.8068 841.203 74.8409 845.127 74.8409Z" fill="white"/>
</svg>
