<svg width="273" height="109" viewBox="0 0 273 109" fill="none" xmlns="http://www.w3.org/2000/svg">
<path d="M0.277699 84V2.54545H10.1413V75.25H48.005V84H0.277699ZM86.8232 85.2727C81.308 85.2727 76.469 83.9602 72.3061 81.3352C68.1697 78.7102 64.9349 75.0379 62.6016 70.3182C60.2947 65.5985 59.1413 60.0833 59.1413 53.7727C59.1413 47.4091 60.2947 41.8542 62.6016 37.108C64.9349 32.3617 68.1697 28.6761 72.3061 26.0511C76.469 23.4261 81.308 22.1136 86.8232 22.1136C92.3383 22.1136 97.1641 23.4261 101.3 26.0511C105.463 28.6761 108.698 32.3617 111.005 37.108C113.338 41.8542 114.505 47.4091 114.505 53.7727C114.505 60.0833 113.338 65.5985 111.005 70.3182C108.698 75.0379 105.463 78.7102 101.3 81.3352C97.1641 83.9602 92.3383 85.2727 86.8232 85.2727ZM86.8232 76.8409C91.0125 76.8409 94.4595 75.767 97.1641 73.6193C99.8686 71.4716 101.871 68.6477 103.17 65.1477C104.469 61.6477 105.119 57.8561 105.119 53.7727C105.119 49.6894 104.469 45.8845 103.17 42.358C101.871 38.8314 99.8686 35.9811 97.1641 33.8068C94.4595 31.6326 91.0125 30.5455 86.8232 30.5455C82.6338 30.5455 79.1868 31.6326 76.4822 33.8068C73.7777 35.9811 71.7758 38.8314 70.4766 42.358C69.1773 45.8845 68.5277 49.6894 68.5277 53.7727C68.5277 57.8561 69.1773 61.6477 70.4766 65.1477C71.7758 68.6477 73.7777 71.4716 76.4822 73.6193C79.1868 75.767 82.6338 76.8409 86.8232 76.8409ZM153.492 108.182C148.958 108.182 145.06 107.598 141.799 106.432C138.538 105.292 135.82 103.78 133.646 101.898C131.498 100.042 129.788 98.053 128.515 95.9318L135.992 90.6818C136.841 91.7955 137.915 93.0682 139.214 94.5C140.513 95.9583 142.29 97.2178 144.543 98.2784C146.824 99.3655 149.807 99.9091 153.492 99.9091C158.424 99.9091 162.494 98.7159 165.702 96.3295C168.911 93.9432 170.515 90.2045 170.515 85.1136V72.7045H169.719C169.03 73.8182 168.049 75.197 166.776 76.8409C165.53 78.4583 163.727 79.9034 161.367 81.1761C159.034 82.4223 155.879 83.0455 151.901 83.0455C146.969 83.0455 142.541 81.8788 138.617 79.5455C134.719 77.2121 131.63 73.8182 129.35 69.3636C127.096 64.9091 125.969 59.5 125.969 53.1364C125.969 46.8788 127.07 41.4299 129.271 36.7898C131.471 32.1231 134.534 28.517 138.458 25.9716C142.382 23.3996 146.916 22.1136 152.06 22.1136C156.038 22.1136 159.193 22.7765 161.526 24.1023C163.886 25.4015 165.689 26.8864 166.935 28.5568C168.208 30.2008 169.189 31.553 169.879 32.6136H170.833V22.9091H179.901V85.75C179.901 91 178.708 95.2689 176.322 98.5568C173.962 101.871 170.78 104.297 166.776 105.835C162.799 107.4 158.371 108.182 153.492 108.182ZM153.174 74.6136C156.939 74.6136 160.121 73.7519 162.719 72.0284C165.318 70.3049 167.293 67.8258 168.646 64.5909C169.998 61.3561 170.674 57.4848 170.674 52.9773C170.674 48.5758 170.011 44.6913 168.685 41.3239C167.36 37.9564 165.397 35.3182 162.799 33.4091C160.201 31.5 156.992 30.5455 153.174 30.5455C149.197 30.5455 145.882 31.553 143.231 33.5682C140.606 35.5833 138.63 38.2879 137.305 41.6818C136.005 45.0758 135.356 48.8409 135.356 52.9773C135.356 57.2197 136.019 60.9716 137.344 64.233C138.697 67.4678 140.685 70.0133 143.31 71.8693C145.962 73.6989 149.25 74.6136 153.174 74.6136ZM197.083 84V22.9091H206.469V84H197.083ZM201.856 12.7273C200.026 12.7273 198.449 12.1042 197.123 10.858C195.824 9.61174 195.174 8.11364 195.174 6.36364C195.174 4.61364 195.824 3.11553 197.123 1.86932C198.449 0.623105 200.026 0 201.856 0C203.685 0 205.25 0.623105 206.549 1.86932C207.875 3.11553 208.538 4.61364 208.538 6.36364C208.538 8.11364 207.875 9.61174 206.549 10.858C205.25 12.1042 203.685 12.7273 201.856 12.7273ZM233.048 47.25V84H223.661V22.9091H232.729V32.4545H233.525C234.957 29.3523 237.131 26.8598 240.048 24.9773C242.964 23.0682 246.729 22.1136 251.343 22.1136C255.479 22.1136 259.099 22.9621 262.201 24.6591C265.303 26.3295 267.716 28.875 269.44 32.2955C271.163 35.6894 272.025 39.9848 272.025 45.1818V84H262.638V45.8182C262.638 41.0189 261.392 37.2803 258.9 34.6023C256.407 31.8977 252.987 30.5455 248.638 30.5455C245.642 30.5455 242.964 31.1951 240.604 32.4943C238.271 33.7936 236.428 35.6894 235.076 38.1818C233.724 40.6742 233.048 43.697 233.048 47.25Z" fill="white"/>
</svg>
