<svg width="404" height="109" viewBox="0 0 404 109" fill="none" xmlns="http://www.w3.org/2000/svg">
<path d="M48.6435 22.9091C48.1662 18.8788 46.2306 15.75 42.8366 13.5227C39.4427 11.2955 35.2798 10.1818 30.348 10.1818C26.742 10.1818 23.5866 10.7651 20.8821 11.9318C18.2041 13.0985 16.1094 14.7026 14.598 16.7443C13.1132 18.786 12.3707 21.1061 12.3707 23.7045C12.3707 25.8788 12.8878 27.7481 13.9219 29.3125C14.9825 30.8504 16.3348 32.1364 17.9787 33.1705C19.6226 34.178 21.3461 35.0133 23.1491 35.6761C24.9522 36.3125 26.6094 36.8295 28.1207 37.2273L36.3935 39.4545C38.5147 40.0114 40.8745 40.7803 43.473 41.7614C46.098 42.7424 48.6037 44.0814 50.9901 45.7784C53.4029 47.4489 55.3916 49.5966 56.956 52.2216C58.5204 54.8466 59.3026 58.0682 59.3026 61.8864C59.3026 66.2879 58.1492 70.2652 55.8423 73.8182C53.562 77.3712 50.2211 80.1951 45.8196 82.2898C41.4446 84.3845 36.1283 85.4318 29.8707 85.4318C24.0374 85.4318 18.9863 84.4905 14.7173 82.608C10.4749 80.7254 7.134 78.1004 4.6946 74.733C2.28172 71.3655 0.916193 67.4545 0.598012 63H10.7798C11.045 66.0758 12.0791 68.6212 13.8821 70.6364C15.7116 72.625 18.0185 74.1098 20.8026 75.0909C23.6132 76.0455 26.6359 76.5227 29.8707 76.5227C33.6359 76.5227 37.0166 75.9129 40.0128 74.6932C43.009 73.447 45.3821 71.7235 47.1321 69.5227C48.8821 67.2955 49.7571 64.697 49.7571 61.7273C49.7571 59.0227 49.0014 56.822 47.4901 55.125C45.9787 53.428 43.9901 52.0492 41.5241 50.9886C39.0582 49.928 36.3935 49 33.5298 48.2045L23.5071 45.3409C17.1435 43.5114 12.1056 40.8996 8.39347 37.5057C4.68134 34.1117 2.82528 29.6705 2.82528 24.1818C2.82528 19.6212 4.05824 15.6439 6.52415 12.25C9.01657 8.82954 12.3575 6.17803 16.5469 4.29545C20.7628 2.38636 25.4692 1.43182 30.6662 1.43182C35.9162 1.43182 40.5829 2.3731 44.6662 4.25568C48.7495 6.11174 51.9844 8.65719 54.3707 11.892C56.7836 15.1269 58.0563 18.7992 58.1889 22.9091H48.6435ZM74.2472 84V22.9091H83.6335V84H74.2472ZM79.0199 12.7273C77.1903 12.7273 75.6127 12.1042 74.2869 10.858C72.9877 9.61174 72.3381 8.11364 72.3381 6.36364C72.3381 4.61364 72.9877 3.11553 74.2869 1.86932C75.6127 0.623105 77.1903 0 79.0199 0C80.8494 0 82.4138 0.623105 83.7131 1.86932C85.0388 3.11553 85.7017 4.61364 85.7017 6.36364C85.7017 8.11364 85.0388 9.61174 83.7131 10.858C82.4138 12.1042 80.8494 12.7273 79.0199 12.7273ZM125.484 108.182C120.95 108.182 117.053 107.598 113.791 106.432C110.53 105.292 107.812 103.78 105.638 101.898C103.49 100.042 101.78 98.053 100.507 95.9318L107.984 90.6818C108.833 91.7955 109.907 93.0682 111.206 94.5C112.505 95.9583 114.282 97.2178 116.536 98.2784C118.816 99.3655 121.799 99.9091 125.484 99.9091C130.416 99.9091 134.486 98.7159 137.695 96.3295C140.903 93.9432 142.507 90.2045 142.507 85.1136V72.7045H141.712C141.022 73.8182 140.041 75.197 138.768 76.8409C137.522 78.4583 135.719 79.9034 133.359 81.1761C131.026 82.4223 127.871 83.0455 123.893 83.0455C118.962 83.0455 114.534 81.8788 110.609 79.5455C106.712 77.2121 103.623 73.8182 101.342 69.3636C99.0885 64.9091 97.9616 59.5 97.9616 53.1364C97.9616 46.8788 99.062 41.4299 101.263 36.7898C103.464 32.1231 106.526 28.517 110.45 25.9716C114.375 23.3996 118.909 22.1136 124.053 22.1136C128.03 22.1136 131.185 22.7765 133.518 24.1023C135.878 25.4015 137.681 26.8864 138.928 28.5568C140.2 30.2008 141.181 31.553 141.871 32.6136H142.825V22.9091H151.893V85.75C151.893 91 150.7 95.2689 148.314 98.5568C145.954 101.871 142.772 104.297 138.768 105.835C134.791 107.4 130.363 108.182 125.484 108.182ZM125.166 74.6136C128.931 74.6136 132.113 73.7519 134.712 72.0284C137.31 70.3049 139.286 67.8258 140.638 64.5909C141.99 61.3561 142.666 57.4848 142.666 52.9773C142.666 48.5758 142.003 44.6913 140.678 41.3239C139.352 37.9564 137.39 35.3182 134.791 33.4091C132.193 31.5 128.984 30.5455 125.166 30.5455C121.189 30.5455 117.875 31.553 115.223 33.5682C112.598 35.5833 110.623 38.2879 109.297 41.6818C107.998 45.0758 107.348 48.8409 107.348 52.9773C107.348 57.2197 108.011 60.9716 109.337 64.233C110.689 67.4678 112.678 70.0133 115.303 71.8693C117.954 73.6989 121.242 74.6136 125.166 74.6136ZM178.462 47.25V84H169.075V22.9091H178.143V32.4545H178.939C180.371 29.3523 182.545 26.8598 185.462 24.9773C188.378 23.0682 192.143 22.1136 196.757 22.1136C200.893 22.1136 204.513 22.9621 207.615 24.6591C210.717 26.3295 213.13 28.875 214.854 32.2955C216.577 35.6894 217.439 39.9848 217.439 45.1818V84H208.053V45.8182C208.053 41.0189 206.806 37.2803 204.314 34.6023C201.821 31.8977 198.401 30.5455 194.053 30.5455C191.056 30.5455 188.378 31.1951 186.018 32.4943C183.685 33.7936 181.842 35.6894 180.49 38.1818C179.138 40.6742 178.462 43.697 178.462 47.25ZM320.818 2.54545H330.682V56.4773C330.682 62.0455 329.369 67.017 326.744 71.392C324.146 75.7405 320.473 79.1742 315.727 81.6932C310.981 84.1856 305.413 85.4318 299.023 85.4318C292.633 85.4318 287.064 84.1856 282.318 81.6932C277.572 79.1742 273.886 75.7405 271.261 71.392C268.663 67.017 267.364 62.0455 267.364 56.4773V2.54545H277.227V55.6818C277.227 59.6591 278.102 63.1989 279.852 66.3011C281.602 69.3769 284.095 71.803 287.33 73.5795C290.591 75.3295 294.489 76.2045 299.023 76.2045C303.557 76.2045 307.455 75.3295 310.716 73.5795C313.977 71.803 316.47 69.3769 318.193 66.3011C319.943 63.1989 320.818 59.6591 320.818 55.6818V2.54545ZM349.107 106.909V22.9091H358.175V32.6136H359.288C359.978 31.553 360.932 30.2008 362.152 28.5568C363.398 26.8864 365.175 25.4015 367.482 24.1023C369.815 22.7765 372.97 22.1136 376.947 22.1136C382.091 22.1136 386.625 23.3996 390.55 25.9716C394.474 28.5436 397.536 32.1894 399.737 36.9091C401.938 41.6288 403.038 47.197 403.038 53.6136C403.038 60.0833 401.938 65.6913 399.737 70.4375C397.536 75.1572 394.487 78.8163 390.589 81.4148C386.692 83.9867 382.197 85.2727 377.107 85.2727C373.182 85.2727 370.04 84.6231 367.68 83.3239C365.321 81.9981 363.504 80.5 362.232 78.8295C360.959 77.1326 359.978 75.7273 359.288 74.6136H358.493V106.909H349.107ZM358.334 53.4545C358.334 58.0682 359.01 62.1383 360.362 65.6648C361.714 69.1648 363.69 71.9091 366.288 73.8977C368.887 75.8598 372.069 76.8409 375.834 76.8409C379.758 76.8409 383.033 75.8068 385.658 73.7386C388.309 71.6439 390.298 68.8333 391.624 65.3068C392.976 61.7538 393.652 57.803 393.652 53.4545C393.652 49.1591 392.989 45.2879 391.663 41.8409C390.364 38.3674 388.389 35.6231 385.737 33.608C383.112 31.5663 379.811 30.5455 375.834 30.5455C372.016 30.5455 368.807 31.5133 366.209 33.4489C363.61 35.358 361.648 38.036 360.322 41.483C358.997 44.9034 358.334 48.8939 358.334 53.4545Z" fill="white"/>
</svg>
