<svg width="42" height="32" viewBox="0 0 42 32" fill="none" xmlns="http://www.w3.org/2000/svg">
<path d="M39.0842 23.064C37.728 23.064 36.5216 23.064 35.0572 23.064C35.3983 23.455 35.5814 23.6713 35.7811 23.871C37.2122 25.3021 38.61 26.7665 40.091 28.131C40.8981 28.8799 41.3224 29.6703 41.156 30.7686C41.0977 31.1513 41.1477 31.5507 41.1477 32C36.4716 32 31.8955 32 27.261 32C27.261 31.1097 27.261 30.2694 27.261 29.2626C30.4644 29.2626 33.651 29.2626 37.0374 29.2626C36.7545 28.9048 36.6381 28.7384 36.5049 28.597C35.0322 27.1243 33.5762 25.6349 32.0619 24.2122C31.4628 23.6464 31.1217 23.0723 31.2215 22.2236C31.2964 21.5913 31.2382 20.9423 31.2382 20.1851C32.5528 20.1851 33.8175 20.1851 35.3567 20.1851C34.9906 19.7109 34.7909 19.428 34.5663 19.17C33.052 17.4061 31.571 15.6173 29.9901 13.9116C29.3494 13.221 29.1082 12.5138 29.1914 11.6152C29.233 11.1659 29.1997 10.6999 29.1997 10.1258C30.4228 10.1258 31.6042 10.1258 32.9355 10.1258C32.7358 9.83463 32.6693 9.67655 32.5528 9.56838C30.8637 7.88767 29.1498 6.21529 27.4774 4.51794C27.0613 4.0936 26.7785 4.0936 26.3375 4.5013C24.6235 6.07384 22.8596 7.59646 21.1539 9.16901C20.7129 9.5767 20.4051 9.56006 19.9974 9.18565C19.5065 8.73635 18.9906 8.31201 18.4082 7.81279C21.312 5.20853 24.1576 2.67083 27.1446 0C27.8268 0.74883 28.4508 1.46438 29.1165 2.13C31.4295 4.45138 33.7176 6.78939 36.0972 9.0442C36.8544 9.76807 37.2288 10.4919 37.0957 11.5153C37.0374 11.9314 37.0873 12.364 37.0873 12.9298C35.7894 12.9298 34.5247 12.9298 32.9605 12.9298C33.7675 13.895 34.3749 14.6271 34.9989 15.351C36.0556 16.5824 37.079 17.8388 38.194 19.0203C38.8929 19.7608 39.234 20.5512 39.1009 21.5663C39.0343 21.999 39.0842 22.4566 39.0842 23.064Z" fill="#258094"/>
<path d="M10.0049 22.9559C10.0049 21.0422 10.0049 19.1452 10.0049 17.2148C11.9685 17.2148 13.8489 17.2148 15.7958 17.2148C15.7958 19.1368 15.7958 21.0089 15.7958 22.9559C13.9071 22.9559 12.0267 22.9559 10.0049 22.9559Z" fill="#258094"/>
<path d="M0.810904 31.9752C0.810904 30.1364 0.810904 28.3725 0.810904 26.6003C0.810904 23.3637 0.794264 20.127 0.835865 16.8904C0.844186 16.4911 1.03555 15.9669 1.32676 15.7173C5.07091 12.5639 8.84835 9.44374 12.6175 6.32361C12.684 6.26537 12.7755 6.24041 12.9419 6.16553C14.8723 7.76303 16.8359 9.37718 18.7828 10.9913C20.6216 12.5139 22.4687 14.0199 24.2742 15.5841C24.5987 15.867 24.8983 16.3746 24.9066 16.7823C24.9482 21.6996 24.9315 26.6169 24.9315 31.5342C24.9315 31.6507 24.9066 31.7755 24.8899 31.9752C16.9024 31.9752 8.92323 31.9752 0.810904 31.9752ZM12.8837 29.2711C15.671 29.2711 18.4667 29.2628 21.254 29.2794C21.7532 29.2794 22.1359 29.2877 22.1193 28.5805C22.0694 25.0693 22.086 21.5581 22.0361 18.0553C22.0278 17.7141 21.8197 17.2815 21.5618 17.0652C18.9243 14.8353 16.2368 12.6554 13.6076 10.4172C13.0335 9.92632 12.6591 9.99288 12.1266 10.4422C9.53061 12.6304 6.89307 14.7688 4.31376 16.9736C3.97263 17.2649 3.68974 17.8306 3.68142 18.2716C3.6315 21.6247 3.66478 24.9861 3.63982 28.3392C3.6315 29.0464 3.87279 29.2961 4.60498 29.2877C7.35901 29.2545 10.1214 29.2794 12.8837 29.2711Z" fill="#258094"/>
</svg>
