<svg width="40" height="30" viewBox="0 0 40 30" fill="none" xmlns="http://www.w3.org/2000/svg">
<path d="M21.3948 11.5715C21.3948 11.2305 21.2478 10.9035 20.9861 10.6623C20.7244 10.4212 20.3695 10.2858 19.9995 10.2858C19.6294 10.2858 19.2745 10.4212 19.0128 10.6623C18.7511 10.9035 18.6041 11.2305 18.6041 11.5715V12.7732L17.4748 12.1732C17.1555 12.0165 16.7827 11.9802 16.435 12.072C16.0873 12.1637 15.7917 12.3762 15.6108 12.6648C15.4298 12.9534 15.3776 13.2954 15.465 13.6188C15.5524 13.9422 15.7727 14.2217 16.0795 14.3983L17.2088 14.9983L16.0795 15.6001C15.7587 15.7705 15.5246 16.0515 15.4287 16.381C15.3327 16.7105 15.3828 17.0617 15.5678 17.3572C15.7529 17.6527 16.0577 17.8684 16.4154 17.9568C16.773 18.0452 17.1541 17.9991 17.4748 17.8286L18.6041 17.2269V18.4286C18.6041 18.7696 18.7511 19.0966 19.0128 19.3378C19.2745 19.5789 19.6294 19.7143 19.9995 19.7143C20.3695 19.7143 20.7244 19.5789 20.9861 19.3378C21.2478 19.0966 21.3948 18.7696 21.3948 18.4286V17.2286L22.5241 17.8286C22.8448 17.9991 23.2259 18.0452 23.5836 17.9568C23.9412 17.8684 24.2461 17.6527 24.4311 17.3572C24.6161 17.0617 24.6662 16.7105 24.5702 16.381C24.4743 16.0515 24.2402 15.7705 23.9195 15.6001L22.7902 15.0001L23.9195 14.4001C24.2402 14.2296 24.4743 13.9486 24.5702 13.6191C24.6662 13.2896 24.6161 12.9384 24.4311 12.6429C24.2461 12.3474 23.9412 12.1317 23.5836 12.0433C23.2259 11.9549 22.8448 12.001 22.5241 12.1715L21.3948 12.7715V11.5715ZM10.2004 10.2858C10.5705 10.2858 10.9254 10.4212 11.187 10.6623C11.4487 10.9035 11.5957 11.2305 11.5957 11.5715V12.7715L12.7232 12.1715C13.0439 12.001 13.425 11.9549 13.7826 12.0433C14.1403 12.1317 14.4451 12.3474 14.6302 12.6429C14.8152 12.9384 14.8652 13.2896 14.7693 13.6191C14.6733 13.9486 14.4393 14.2296 14.1185 14.4001L12.9892 15.0001L14.1185 15.6001C14.2773 15.6845 14.4165 15.7969 14.5282 15.9309C14.6399 16.0649 14.7218 16.2178 14.7693 16.381C14.8168 16.5442 14.829 16.7143 14.8051 16.8818C14.7812 17.0493 14.7218 17.2109 14.6302 17.3572C14.5385 17.5035 14.4165 17.6318 14.2711 17.7347C14.1257 17.8376 13.9597 17.9131 13.7826 17.9568C13.6055 18.0006 13.4208 18.0118 13.2391 17.9898C13.0573 17.9678 12.882 17.913 12.7232 17.8286L11.5957 17.2286V18.4286C11.5957 18.7696 11.4487 19.0966 11.187 19.3378C10.9254 19.5789 10.5705 19.7143 10.2004 19.7143C9.83032 19.7143 9.47541 19.5789 9.21373 19.3378C8.95205 19.0966 8.80504 18.7696 8.80504 18.4286V17.2269L7.67388 17.8269C7.35462 17.9836 6.98181 18.0199 6.63407 17.9282C6.28632 17.8364 5.99082 17.6239 5.80986 17.3353C5.6289 17.0467 5.57662 16.7047 5.66405 16.3813C5.75149 16.0579 5.9718 15.7784 6.27853 15.6018L7.40783 15.0001L6.27853 14.4001C6.11972 14.3156 5.98051 14.2032 5.86885 14.0692C5.7572 13.9352 5.67528 13.7823 5.62777 13.6191C5.58026 13.456 5.56809 13.2858 5.59196 13.1183C5.61584 12.9508 5.67528 12.7892 5.7669 12.6429C5.85852 12.4966 5.98052 12.3683 6.12594 12.2654C6.27136 12.1625 6.43735 12.0871 6.61443 12.0433C6.79151 11.9995 6.97621 11.9883 7.15799 12.0103C7.33977 12.0323 7.51507 12.0871 7.67388 12.1715L8.80504 12.7732V11.5715C8.80504 11.2305 8.95205 10.9035 9.21373 10.6623C9.47541 10.4212 9.83032 10.2858 10.2004 10.2858ZM31.1957 11.5715C31.1957 11.2305 31.0487 10.9035 30.7871 10.6623C30.5254 10.4212 30.1705 10.2858 29.8004 10.2858C29.4303 10.2858 29.0754 10.4212 28.8137 10.6623C28.552 10.9035 28.405 11.2305 28.405 11.5715V12.7732L27.2757 12.1732C26.9565 12.0165 26.5837 11.9802 26.2359 12.072C25.8882 12.1637 25.5927 12.3762 25.4117 12.6648C25.2308 12.9534 25.1785 13.2954 25.2659 13.6188C25.3533 13.9422 25.5737 14.2217 25.8804 14.3983L27.0097 14.9983L25.8785 15.6001C25.5578 15.7705 25.3237 16.0515 25.2278 16.381C25.1318 16.7105 25.1819 17.0617 25.3669 17.3572C25.5519 17.6527 25.8568 17.8684 26.2144 17.9568C26.5721 18.0452 26.9532 17.9991 27.2739 17.8286L28.405 17.2269V18.4286C28.405 18.7696 28.552 19.0966 28.8137 19.3378C29.0754 19.5789 29.4303 19.7143 29.8004 19.7143C30.1705 19.7143 30.5254 19.5789 30.7871 19.3378C31.0487 19.0966 31.1957 18.7696 31.1957 18.4286V17.2286L32.325 17.8286C32.6458 17.9991 33.0269 18.0452 33.3845 17.9568C33.7421 17.8684 34.047 17.6527 34.232 17.3572C34.4171 17.0617 34.4671 16.7105 34.3712 16.381C34.2752 16.0515 34.0411 15.7705 33.7204 15.6001L32.5911 15.0001L33.7204 14.4001C34.0411 14.2296 34.2752 13.9486 34.3712 13.6191C34.4671 13.2896 34.4171 12.9384 34.232 12.6429C34.047 12.3474 33.7421 12.1317 33.3845 12.0433C33.0269 11.9549 32.6458 12.001 32.325 12.1715L31.1957 12.7715V11.5715Z" fill="#258094"/>
<path fill-rule="evenodd" clip-rule="evenodd" d="M16.1749 0C12.7553 0 10.0465 1.83923e-07 7.92744 0.262286C5.74698 0.533143 3.9814 1.10229 2.58791 2.38457C1.19628 3.66857 0.578605 5.29543 0.284651 7.30457C0 9.25886 0 11.7531 0 14.904V15.096C0 18.2469 0 20.7429 0.284651 22.6954C0.578605 24.7046 1.19628 26.3314 2.58791 27.6154C3.9814 28.8977 5.74698 29.4669 7.92744 29.7377C10.0484 30 12.7553 30 16.1749 30H23.8251C27.2447 30 29.9535 30 32.0726 29.7377C34.253 29.4669 36.0186 28.8977 37.4121 27.6154C38.8037 26.3314 39.4214 24.7046 39.7153 22.6954C40 20.7411 40 18.2469 40 15.096V14.904C40 11.7531 40 9.25714 39.7153 7.30457C39.4214 5.29543 38.8037 3.66857 37.4121 2.38457C36.0186 1.10229 34.253 0.533143 32.0726 0.262286C29.9516 1.83923e-07 27.2447 0 23.8251 0H16.1749ZM4.56186 4.20343C5.34884 3.47829 6.42791 3.04286 8.29953 2.81143C10.2121 2.57486 12.7312 2.57143 16.2791 2.57143H23.7209C27.2688 2.57143 29.7898 2.57486 31.7023 2.81143C33.5721 3.04286 34.6512 3.47829 35.4381 4.20343C36.2251 4.92857 36.6977 5.92286 36.9488 7.64743C37.2056 9.40971 37.2093 11.7309 37.2093 15C37.2093 18.2691 37.2056 20.592 36.9488 22.3543C36.6977 24.0771 36.2251 25.0714 35.4381 25.7966C34.6512 26.5217 33.5721 26.9571 31.7005 27.1886C29.7898 27.4251 27.2688 27.4286 23.7209 27.4286H16.2791C12.7312 27.4286 10.2121 27.4251 8.29768 27.1886C6.42791 26.9571 5.34884 26.5217 4.56186 25.7966C3.77488 25.0714 3.30233 24.0771 3.05116 22.3526C2.79442 20.5903 2.7907 18.2691 2.7907 15C2.7907 11.7309 2.79442 9.40971 3.05116 7.64571C3.30233 5.92286 3.77488 4.92857 4.56186 4.20343Z" fill="#258094"/>
</svg>
