<svg width="46" height="46" viewBox="0 0 46 46" fill="none" xmlns="http://www.w3.org/2000/svg">
<path d="M3 37.7368L16.826 27.821C21.878 24.2 24.122 24.2 29.174 27.821L43 37.7368" stroke="#258094" stroke-width="5" stroke-linecap="round" stroke-linejoin="round"/>
<path d="M3.03199 28.3705C3.16399 34.7558 3.22999 37.9495 5.49199 40.3137C7.75399 42.6779 10.904 42.76 17.202 42.9242C21.078 43.0253 24.922 43.0253 28.798 42.9242C35.098 42.76 38.246 42.6779 40.508 40.3137C42.77 37.9495 42.836 34.7558 42.968 28.3705C43.0322 25.2411 42.9988 22.1103 42.868 18.9832C42.784 17.0211 42.744 16.0379 42.27 15.1684C41.798 14.2968 40.982 13.7368 39.352 12.6126L31.832 7.42737C27.546 4.47368 25.406 3 23 3C20.594 3 18.452 4.47579 14.17 7.42737L6.64799 12.6126C5.01799 13.7347 4.20199 14.2968 3.72799 15.1684C3.25399 16.04 3.21599 17.0211 3.13399 18.9832C3.00251 22.1103 2.96849 25.2411 3.03199 28.3705Z" stroke="#258094" stroke-width="5" stroke-linecap="round" stroke-linejoin="round"/>
<path d="M43 17.7368L34.47 24.2779C32.4 25.8652 30.7 27.2105 28 27.2105M3 17.7368L11.53 24.2779C13.6 25.8652 15.3 27.2105 18 27.2105" stroke="#258094" stroke-width="5" stroke-linecap="round" stroke-linejoin="round"/>
</svg>
