<svg width="62" height="48" viewBox="0 0 62 48" fill="none" xmlns="http://www.w3.org/2000/svg">
<path d="M58.1268 34.5959C56.0925 34.5959 54.2828 34.5959 52.0863 34.5959C52.598 35.1825 52.8725 35.507 53.1721 35.8065C55.3187 37.9532 57.4154 40.1498 59.637 42.1966C60.8476 43.3198 61.4841 44.5055 61.2345 46.1529C61.1471 46.727 61.222 47.3261 61.222 48C54.208 48 47.3437 48 40.392 48C40.392 46.6646 40.392 45.4041 40.392 43.8939C45.197 43.8939 49.9771 43.8939 55.0566 43.8939C54.6323 43.3573 54.4576 43.1076 54.2579 42.8955C52.0488 40.6864 49.8647 38.4524 47.5933 36.3183C46.6947 35.4696 46.183 34.6084 46.3328 33.3354C46.4451 32.3869 46.3577 31.4134 46.3577 30.2777C48.3296 30.2777 50.2267 30.2777 52.5356 30.2777C51.9864 29.5663 51.6869 29.142 51.3499 28.7551C49.0785 26.1092 46.8569 23.4259 44.4856 20.8674C43.5246 19.8315 43.1627 18.7707 43.2875 17.4228C43.3499 16.7488 43.3 16.0499 43.3 15.1888C45.1346 15.1888 46.9069 15.1888 48.9037 15.1888C48.6042 14.7519 48.5044 14.5148 48.3296 14.3526C45.7961 11.8315 43.2251 9.32293 40.7165 6.77691C40.0925 6.14041 39.6682 6.14041 39.0067 6.75195C36.4357 9.11076 33.7899 11.3947 31.2314 13.7535C30.5699 14.3651 30.1081 14.3401 29.4966 13.7785C28.7602 13.1045 27.9864 12.468 27.1128 11.7192C31.4685 7.81279 35.7368 4.00624 40.2173 0C41.2407 1.12324 42.1768 2.19657 43.1752 3.19501C46.6448 6.67707 50.0769 10.1841 53.6463 13.5663C54.7821 14.6521 55.3437 15.7379 55.144 17.273C55.0566 17.897 55.1315 18.546 55.1315 19.3947C53.1846 19.3947 51.2875 19.3947 48.9412 19.3947C50.1518 20.8424 51.0629 21.9407 51.9989 23.0265C53.5839 24.8736 55.119 26.7582 56.7914 28.5304C57.8398 29.6412 58.3515 30.8268 58.1518 32.3495C58.0519 32.9984 58.1268 33.6849 58.1268 34.5959Z" fill="#258094"/>
<path d="M14.5074 34.4337C14.5074 31.5632 14.5074 28.7176 14.5074 25.8221C17.4528 25.8221 20.2734 25.8221 23.1939 25.8221C23.1939 28.7051 23.1939 31.5133 23.1939 34.4337C20.3608 34.4337 17.5402 34.4337 14.5074 34.4337Z" fill="#258094"/>
<path d="M0.716662 47.9626C0.716662 45.2044 0.716662 42.5585 0.716662 39.9002C0.716662 35.0452 0.6917 30.1903 0.754103 25.3354C0.766583 24.7363 1.05363 23.9501 1.49045 23.5757C7.10668 18.8455 12.7728 14.1654 18.4265 9.48518C18.5263 9.39781 18.6636 9.36037 18.9132 9.24805C21.8087 11.6443 24.7541 14.0655 27.6745 16.4867C30.4327 18.7707 33.2034 21.0296 35.9117 23.376C36.3984 23.8003 36.8477 24.5616 36.8602 25.1732C36.9226 32.5491 36.8976 39.9251 36.8976 47.3011C36.8976 47.4758 36.8602 47.663 36.8352 47.9626C24.8539 47.9626 12.8851 47.9626 0.716662 47.9626ZM18.8259 43.9064C23.0068 43.9064 27.2003 43.8939 31.3812 43.9189C32.1301 43.9189 32.7042 43.9314 32.6792 42.8705C32.6043 37.6037 32.6293 32.337 32.5544 27.0827C32.5419 26.571 32.2299 25.922 31.843 25.5975C27.8867 22.2527 23.8555 18.9828 19.9117 15.6256C19.0505 14.8892 18.4889 14.9891 17.6901 15.663C13.7962 18.9454 9.83991 22.1529 5.97095 25.4602C5.45925 25.897 5.03491 26.7457 5.02243 27.4072C4.94755 32.4368 4.99747 37.4789 4.96003 42.5086C4.94755 43.5694 5.30948 43.9438 6.40777 43.9314C10.5388 43.8814 14.6823 43.9189 18.8259 43.9064Z" fill="#258094"/>
</svg>
