<svg width="46" height="46" viewBox="0 0 46 46" fill="none" xmlns="http://www.w3.org/2000/svg">
<path d="M28.0053 40.8748H8.00106C6.6747 40.8748 5.40266 40.4314 4.46478 39.6422C3.5269 38.853 3 37.7826 3 36.6665V24.0416C3 22.9254 3.5269 21.8551 4.46478 21.0658C5.40266 20.2766 6.6747 19.8333 8.00106 19.8333H33.0064C33.669 19.8333 34.3016 19.9427 34.8818 20.1384" stroke="#258094" stroke-width="5" stroke-linecap="round" stroke-linejoin="round"/>
<path d="M10.502 19.8332V11.4166C10.502 9.1844 11.5557 7.04359 13.4315 5.46517C15.3073 3.88675 17.8513 3 20.5041 3C23.1568 3 25.7009 3.88675 27.5766 5.46517C29.4524 7.04359 30.5062 9.1844 30.5062 11.4166V19.8332M38.0078 42.979V43M38.0078 36.6665C39.1288 36.6635 40.2161 36.3441 41.0959 35.7595C41.9756 35.1749 42.5969 34.3588 42.8602 33.4419C43.1235 32.525 43.0137 31.5603 42.5483 30.7022C42.083 29.844 41.2889 29.142 40.2933 28.7086C39.2985 28.2798 38.1606 28.1468 37.0646 28.3313C35.9686 28.5159 34.9791 29.007 34.257 29.7249M18.0035 30.354C18.0035 30.9121 18.267 31.4473 18.7359 31.8419C19.2049 32.2365 19.8409 32.4582 20.5041 32.4582C21.1673 32.4582 21.8033 32.2365 22.2722 31.8419C22.7412 31.4473 23.0046 30.9121 23.0046 30.354C23.0046 29.796 22.7412 29.2608 22.2722 28.8662C21.8033 28.4716 21.1673 28.2499 20.5041 28.2499C19.8409 28.2499 19.2049 28.4716 18.7359 28.8662C18.267 29.2608 18.0035 29.796 18.0035 30.354Z" stroke="#258094" stroke-width="5" stroke-linecap="round" stroke-linejoin="round"/>
</svg>
