<svg width="40" height="40" viewBox="0 0 40 40" fill="none" xmlns="http://www.w3.org/2000/svg">
<path fill-rule="evenodd" clip-rule="evenodd" d="M13.7874 8.75026H15.3399L16.4399 7.65026L19.1149 4.97526C19.231 4.85885 19.3689 4.76649 19.5208 4.70348C19.6727 4.64046 19.8355 4.60802 19.9999 4.60802C20.1643 4.60802 20.3271 4.64046 20.479 4.70348C20.6308 4.76649 20.7688 4.85885 20.8849 4.97526L23.5599 7.65026L24.6599 8.75026H29.9999C30.3314 8.75026 30.6494 8.88195 30.8838 9.11637C31.1182 9.35079 31.2499 9.66874 31.2499 10.0003V15.3403L32.3499 16.4403L35.0249 19.1153C35.1413 19.2314 35.2337 19.3693 35.2967 19.5212C35.3597 19.673 35.3921 19.8358 35.3921 20.0003C35.3921 20.1647 35.3597 20.3275 35.2967 20.4793C35.2337 20.6312 35.1413 20.7691 35.0249 20.8853L32.3499 23.5603L31.2499 24.6603V30.0003C31.2499 30.3318 31.1182 30.6497 30.8838 30.8841C30.6494 31.1186 30.3314 31.2503 29.9999 31.2503H24.6599L23.5599 32.3503L20.8849 35.0253C20.7688 35.1417 20.6308 35.234 20.479 35.297C20.3271 35.3601 20.1643 35.3925 19.9999 35.3925C19.8355 35.3925 19.6727 35.3601 19.5208 35.297C19.3689 35.234 19.231 35.1417 19.1149 35.0253L16.4399 32.3503L15.3399 31.2503H9.99989C9.66837 31.2503 9.35043 31.1186 9.11601 30.8841C8.88159 30.6497 8.74989 30.3318 8.74989 30.0003V24.6603L7.64989 23.5603L4.97489 20.8853C4.85848 20.7691 4.76613 20.6312 4.70311 20.4793C4.64009 20.3275 4.60766 20.1647 4.60766 20.0003C4.60766 19.8358 4.64009 19.673 4.70311 19.5212C4.76613 19.3693 4.85848 19.2314 4.97489 19.1153L7.64989 16.4403L8.74989 15.3403V10.0003C8.74989 9.66874 8.88159 9.35079 9.11601 9.11637C9.35043 8.88195 9.66837 8.75026 9.99989 8.75026H13.7874ZM23.5374 2.32276C23.073 1.85787 22.5216 1.48908 21.9146 1.23746C21.3076 0.985836 20.657 0.856323 19.9999 0.856323C19.3428 0.856323 18.6922 0.985836 18.0852 1.23746C17.4782 1.48908 16.9268 1.85787 16.4624 2.32276L13.7899 5.00026H9.99989C8.67381 5.00026 7.40204 5.52704 6.46436 6.46472C5.52667 7.4024 4.99989 8.67417 4.99989 10.0003V13.7878L2.32239 16.4628C1.85751 16.9271 1.48871 17.4786 1.23709 18.0856C0.98547 18.6925 0.855957 19.3432 0.855957 20.0003C0.855957 20.6573 0.98547 21.308 1.23709 21.915C1.48871 22.5219 1.85751 23.0734 2.32239 23.5378L4.99989 26.2103V30.0003C4.99989 31.3263 5.52667 32.5981 6.46436 33.5358C7.40204 34.4735 8.67381 35.0003 9.99989 35.0003H13.7874L16.4624 37.6778C16.9268 38.1426 17.4782 38.5114 18.0852 38.7631C18.6922 39.0147 19.3428 39.1442 19.9999 39.1442C20.657 39.1442 21.3076 39.0147 21.9146 38.7631C22.5216 38.5114 23.073 38.1426 23.5374 37.6778L26.2099 35.0003H29.9999C31.326 35.0003 32.5977 34.4735 33.5354 33.5358C34.4731 32.5981 34.9999 31.3263 34.9999 30.0003V26.2128L37.6774 23.5378C38.1423 23.0734 38.5111 22.5219 38.7627 21.915C39.0143 21.308 39.1438 20.6573 39.1438 20.0003C39.1438 19.3432 39.0143 18.6925 38.7627 18.0856C38.5111 17.4786 38.1423 16.9271 37.6774 16.4628L34.9999 13.7903V10.0003C34.9999 8.67417 34.4731 7.4024 33.5354 6.46472C32.5977 5.52704 31.326 5.00026 29.9999 5.00026H26.2124L23.5374 2.32276ZM27.7499 16.1253C27.8976 15.9283 28.0051 15.7041 28.0662 15.4656C28.1273 15.2271 28.1409 14.9788 28.106 14.7351C28.0712 14.4913 27.9887 14.2568 27.8633 14.045C27.7378 13.8331 27.5719 13.648 27.3749 13.5003C27.1779 13.3525 26.9538 13.245 26.7152 13.1839C26.4767 13.1228 26.2285 13.1093 25.9847 13.1441C25.741 13.1789 25.5065 13.2614 25.2946 13.3869C25.0827 13.5123 24.8976 13.6783 24.7499 13.8753L18.5474 22.1453L15.0749 18.6753C14.7195 18.3441 14.2493 18.1637 13.7636 18.1723C13.2778 18.1809 12.8144 18.3777 12.4708 18.7212C12.1273 19.0647 11.9305 19.5282 11.922 20.014C11.9134 20.4997 12.0937 20.9698 12.4249 21.3253L17.4249 26.3253C17.6148 26.5151 17.8432 26.662 18.0948 26.7559C18.3464 26.8498 18.6152 26.8886 18.883 26.8696C19.1509 26.8507 19.4115 26.7744 19.6473 26.646C19.8832 26.5175 20.0886 26.34 20.2499 26.1253L27.7499 16.1253Z" fill="#258094"/>
</svg>
